<svg width="195" height="130" viewBox="0 0 195 130" fill="none" xmlns="http://www.w3.org/2000/svg">
<rect width="195" height="130" rx="2" fill="#F7F8FC"/>
<path fill-rule="evenodd" clip-rule="evenodd" d="M68.4354 60.5708C66.2527 60.5678 64.1057 60.8268 62.0165 61.3409C62.6342 58.2828 65.281 55.979 68.4404 55.9832H68.4683C71.6145 56.0008 74.242 58.3063 74.8504 61.3566C72.7631 60.8376 70.6176 60.5735 68.4354 60.5708ZM68.4897 52.0003C68.475 52 68.4597 52 68.4449 52C62.6926 51.9929 58.0072 56.7905 58 62.6949C57.9964 65.612 59.1367 68.2607 60.9838 70.1961L63.8455 67.5033C63.2629 66.916 62.7876 66.2174 62.4496 65.4428C64.3893 64.9189 66.3912 64.6543 68.4304 64.657C70.4695 64.6594 72.4702 64.929 74.4082 65.4577C74.0608 66.2489 73.5695 66.9603 72.9673 67.5542L75.8011 70.2801C77.6895 68.3439 78.8607 65.6707 78.8643 62.7211C78.8712 56.8321 74.2217 52.0323 68.4897 52.0003Z" fill="#C9CBD6"/>
<path d="M98.5095 55.0806C98.5248 54.8366 98.5341 54.5908 98.5341 54.3428L96.8215 54.3426C96.8215 54.591 96.8112 54.8368 96.7936 55.0806H91.83C91.8124 54.8368 91.8021 54.5913 91.8021 54.3428L90.0737 54.3426C90.0737 54.5906 90.0828 54.8366 90.0978 55.0806H88.5526V56.2684H100.052V55.0806H98.5095Z" fill="#C9CBD6"/>
<path d="M86.0148 58.9719H85.1264V55.2132H83.4494V67.386H85.1264V60.7734C85.1264 60.6461 85.2271 60.5428 85.3514 60.5428H86.0148V69.2301H87.6934V54.3427H86.0148V58.9719Z" fill="#C9CBD6"/>
<path fill-rule="evenodd" clip-rule="evenodd" d="M93.446 58.2465H88.5526V57.14H100.052V58.2465H95.1587V58.9997H100.052V60.1065H95.1587V60.8607H98.5596C99.3188 60.8607 99.9343 61.4925 99.9343 62.272V65.5435H95.1587V66.3007H100.052V67.3602H95.1587V68.1232H100.052V69.2302H88.5526V68.1232H93.446V67.3602H88.5526V66.3007H93.446V65.5435H90.0451C89.2857 65.5435 88.6704 64.9119 88.6704 64.1325V60.8607H93.446V60.1065H88.5526V58.9997H93.446V58.2465ZM98.7278 62.6632V62.1579C98.7278 62.0304 98.6271 61.9273 98.5031 61.9273H95.1587V62.6632H98.7278ZM95.1587 64.4774H98.7278V63.7295H95.1587V64.4774ZM89.877 63.7295V64.2466C89.877 64.3741 89.9776 64.4774 90.1016 64.4774H93.446V63.7295H89.877ZM93.446 61.9273H89.877V62.6632H93.446V61.9273Z" fill="#C9CBD6"/>
<path d="M134.515 59.1122H133.925C133.97 58.6917 133.995 58.2655 133.995 57.8329L132.263 57.8327C132.263 58.2664 132.234 58.6931 132.182 59.1122H124.513C124.461 58.6931 124.432 58.2667 124.432 57.8329L122.7 57.8327C122.7 58.2652 122.725 58.6917 122.769 59.1122H121.931C120.862 59.1122 119.992 60.005 119.992 61.1025V62.8114H121.704V61.1025C121.704 60.9742 121.806 60.8702 121.931 60.8702H134.515C134.64 60.8702 134.742 60.9742 134.742 61.1025V62.8114H136.454V61.1025C136.454 60.005 135.584 59.1122 134.515 59.1122Z" fill="#C9CBD6"/>
<path d="M133.476 63.2084C134.544 63.2084 135.414 64.1009 135.414 65.1974V68.3284H133.701V65.1974C133.701 65.0698 133.6 64.9663 133.476 64.9663H129.099V69.2302H127.386V64.9663H123.182C123.057 64.9663 122.957 65.0698 122.957 65.1974V68.3284H121.244V65.1974C121.244 64.1009 122.113 63.2084 123.182 63.2084H127.386V62.1041H129.099V63.2084H133.476Z" fill="#C9CBD6"/>
<path d="M129.099 55.0326V54.3427H127.386V55.0326H120.006V56.7905H136.48V55.0326H129.099Z" fill="#C9CBD6"/>
<path d="M105.334 54.3427H107.284L106.918 55.0328H118.313V56.7907H105.986L103.906 60.707C103.824 60.8608 103.932 61.0483 104.103 61.0483H110.008V58.8681H111.721V61.0483H118.313V62.806H111.721V64.8706H118.313V66.6285H111.721V69.2303H110.008V66.6285H101.838V64.8706H110.008V62.806H104.131C103.421 62.806 102.783 62.4243 102.432 61.7878C102.09 61.1677 102.124 60.4 102.456 59.7741L104.037 56.7907H101.838V55.0328H104.968L105.334 54.3427Z" fill="#C9CBD6"/>
<path d="M58.3935 73.7206L59.3931 76.7555H59.9529L60.5698 74.4837L61.1868 76.7555H61.7465L62.7462 73.7206H62.0779L61.4552 76.0158L60.8497 73.7206H60.2899L59.6845 76.0158L59.0618 73.7206H58.3935Z" fill="#C9CBD6"/>
<path d="M64.234 73.7206L65.2336 76.7555H65.7934L66.4103 74.4837L67.0272 76.7555H67.587L68.5867 73.7206H67.9183L67.2957 76.0158L66.6902 73.7206H66.1304L65.5249 76.0158L64.9023 73.7206H64.234Z" fill="#C9CBD6"/>
<path d="M70.0745 73.7206L71.0741 76.7555H71.6339L72.2508 74.4837L72.8677 76.7555H73.4275L74.4271 73.7206H73.7588L73.1362 76.0158L72.5307 73.7206H71.9709L71.3654 76.0158L70.7428 73.7206H70.0745Z" fill="#C9CBD6"/>
<path d="M76.6632 75.916C76.5376 75.916 76.4404 75.9571 76.3662 76.0393C76.2805 76.1215 76.2405 76.2272 76.2405 76.3563C76.2405 76.4737 76.2805 76.5794 76.3662 76.6674C76.4404 76.7438 76.5376 76.7848 76.6632 76.7848C76.7775 76.7848 76.8803 76.7438 76.966 76.6674C77.0459 76.5794 77.0916 76.4737 77.0916 76.3563C77.0916 76.2272 77.0459 76.1215 76.966 76.0393C76.8803 75.9571 76.7775 75.916 76.6632 75.916Z" fill="#C9CBD6"/>
<path d="M81.3384 72.4819V74.1726C81.0985 73.8145 80.7958 73.6384 80.4359 73.6384C80.0132 73.6384 79.6762 73.7969 79.4363 74.1139C79.2078 74.4074 79.0992 74.7772 79.0992 75.2233C79.0992 75.6871 79.2135 76.0687 79.442 76.3622C79.6876 76.6792 80.0303 76.8377 80.4645 76.8377C80.8643 76.8377 81.1728 76.6851 81.3784 76.3915V76.7555H81.9439V72.4819H81.3384ZM80.573 74.1432C80.7958 74.1432 80.9785 74.2313 81.1271 74.4191C81.2756 74.6187 81.3556 74.8829 81.3556 75.2116V75.2644C81.3556 75.5697 81.2927 75.8162 81.1671 76.01C81.0185 76.2213 80.8186 76.3328 80.5558 76.3328C80.2588 76.3328 80.036 76.2213 79.8989 76.0041C79.779 75.8162 79.7219 75.558 79.7219 75.2233C79.7219 74.8887 79.7847 74.6304 79.9104 74.4543C80.0532 74.243 80.276 74.1432 80.573 74.1432Z" fill="#C9CBD6"/>
<path d="M85.4149 73.6384C84.9694 73.6384 84.6095 73.791 84.3411 74.0963C84.0726 74.3956 83.9412 74.7772 83.9412 75.241C83.9412 75.6988 84.0726 76.0804 84.3353 76.3739C84.6095 76.6792 84.9694 76.8377 85.4149 76.8377C85.8605 76.8377 86.2204 76.6792 86.4945 76.3739C86.7573 76.0804 86.8887 75.6988 86.8887 75.241C86.8887 74.7772 86.7516 74.3956 86.4888 74.0963C86.2204 73.791 85.8605 73.6384 85.4149 73.6384ZM85.4149 74.1491C85.6948 74.1491 85.9119 74.2606 86.0718 74.4896C86.2089 74.6833 86.2775 74.9357 86.2775 75.241C86.2775 75.5403 86.2089 75.7869 86.0718 75.9865C85.9119 76.2096 85.6948 76.327 85.4149 76.327C85.135 76.327 84.918 76.2096 84.7638 75.9865C84.6267 75.7928 84.5638 75.5462 84.5638 75.241C84.5638 74.9357 84.6267 74.6833 84.7638 74.4896C84.918 74.2606 85.135 74.1491 85.4149 74.1491Z" fill="#C9CBD6"/>
<path d="M90.3884 73.6384C90.2056 73.6384 90.04 73.6736 89.8915 73.7558C89.7429 73.8321 89.6116 73.9436 89.4973 74.0963V73.7206H88.8918V76.7555H89.4973V74.9298C89.5202 74.6833 89.6059 74.4896 89.7429 74.3487C89.8686 74.2195 90.0228 74.1608 90.1942 74.1608C90.6512 74.1608 90.8854 74.4191 90.8854 74.9357V76.7555H91.4909V74.8829C91.4909 74.0493 91.1196 73.6384 90.3884 73.6384Z" fill="#C9CBD6"/>
<path d="M94.8392 73.6384C94.4393 73.6384 94.1137 73.7793 93.8681 74.0669C93.6168 74.3487 93.4968 74.7126 93.4968 75.1705C93.4968 75.6284 93.6168 75.9924 93.8681 76.2683C94.1137 76.5442 94.4393 76.6851 94.8392 76.6851C95.2276 76.6851 95.5246 76.5148 95.7417 76.1802V76.6498C95.7417 77.2192 95.4847 77.5069 94.9706 77.5069C94.7307 77.5069 94.5536 77.4658 94.445 77.3954C94.3308 77.319 94.2623 77.1899 94.228 77.0138H93.6225C93.6796 77.3484 93.811 77.5949 94.0281 77.7593C94.2451 77.9178 94.5593 78 94.9706 78C95.8845 78 96.3472 77.5186 96.3472 76.5559V73.7206H95.7417V74.1256C95.5246 73.7969 95.2276 73.6384 94.8392 73.6384ZM94.9306 74.1432C95.1876 74.1432 95.3876 74.2313 95.5361 74.4191C95.6732 74.6011 95.7474 74.8535 95.7474 75.1705C95.7474 75.4816 95.6732 75.7282 95.5361 75.9102C95.3876 76.0863 95.1876 76.1743 94.9306 76.1743C94.6335 76.1743 94.4222 76.0687 94.2908 75.8691C94.1766 75.6988 94.1195 75.464 94.1195 75.1705C94.1195 74.8476 94.188 74.5952 94.3365 74.4191C94.4736 74.2313 94.6735 74.1432 94.9306 74.1432Z" fill="#C9CBD6"/>
<path d="M99.7724 73.6384C99.3154 73.6384 98.9613 73.7969 98.7042 74.1139C98.4643 74.4074 98.3444 74.7831 98.3444 75.241C98.3444 75.7106 98.4643 76.0863 98.7099 76.3798C98.9613 76.6851 99.3097 76.8377 99.761 76.8377C100.138 76.8377 100.446 76.7379 100.675 76.5442C100.903 76.3446 101.058 76.0393 101.126 75.6343H100.526C100.469 76.0922 100.218 76.327 99.7667 76.327C99.5039 76.327 99.3097 76.2272 99.1783 76.0393C99.0355 75.8456 98.967 75.5756 98.967 75.2351C98.967 74.8946 99.0355 74.6246 99.1841 74.4367C99.3269 74.243 99.5211 74.1491 99.7724 74.1491C99.978 74.1491 100.144 74.196 100.269 74.2958C100.395 74.3898 100.475 74.5424 100.515 74.7479H101.115C101.058 74.3722 100.909 74.0904 100.681 73.9025C100.452 73.7264 100.149 73.6384 99.7724 73.6384Z" fill="#C9CBD6"/>
<path d="M103.072 72.4819V76.7555H103.677V75.0531C103.677 74.7889 103.74 74.5717 103.872 74.4015C103.997 74.2313 104.163 74.1491 104.369 74.1491C104.597 74.1491 104.774 74.2195 104.888 74.3663C104.991 74.5072 105.048 74.7068 105.048 74.9768V76.7555H105.654V74.8711C105.654 74.472 105.568 74.1667 105.397 73.9612C105.214 73.744 104.945 73.6384 104.591 73.6384C104.403 73.6384 104.237 73.6736 104.089 73.7558C103.923 73.838 103.786 73.973 103.677 74.1491V72.4819H103.072Z" fill="#C9CBD6"/>
<path d="M109.02 73.6384C108.586 73.6384 108.237 73.791 107.986 74.1021C107.723 74.4074 107.597 74.7831 107.597 75.2351C107.597 75.7341 107.735 76.1274 108.009 76.4209C108.26 76.6968 108.608 76.8377 109.043 76.8377C109.437 76.8377 109.762 76.7203 110.019 76.4913C110.225 76.3035 110.356 76.0628 110.425 75.781H109.819C109.739 75.9571 109.654 76.0922 109.551 76.1743C109.42 76.2741 109.248 76.327 109.037 76.327C108.797 76.327 108.608 76.2448 108.471 76.0922C108.334 75.9337 108.26 75.7047 108.237 75.4112H110.476C110.471 74.8711 110.351 74.4485 110.122 74.1432C109.871 73.8027 109.5 73.6384 109.02 73.6384ZM109.037 74.1491C109.517 74.1491 109.785 74.4132 109.842 74.9416H108.249C108.283 74.6833 108.369 74.4896 108.494 74.3545C108.631 74.2137 108.808 74.1491 109.037 74.1491Z" fill="#C9CBD6"/>
<path d="M114.546 72.4819V74.1726C114.306 73.8145 114.003 73.6384 113.643 73.6384C113.221 73.6384 112.884 73.7969 112.644 74.1139C112.415 74.4074 112.307 74.7772 112.307 75.2233C112.307 75.6871 112.421 76.0687 112.65 76.3622C112.895 76.6792 113.238 76.8377 113.672 76.8377C114.072 76.8377 114.38 76.6851 114.586 76.3915V76.7555H115.152V72.4819H114.546ZM113.781 74.1432C114.003 74.1432 114.186 74.2313 114.335 74.4191C114.483 74.6187 114.563 74.8829 114.563 75.2116V75.2644C114.563 75.5697 114.5 75.8162 114.375 76.01C114.226 76.2213 114.026 76.3328 113.763 76.3328C113.466 76.3328 113.244 76.2213 113.107 76.0041C112.987 75.8162 112.929 75.558 112.929 75.2233C112.929 74.8887 112.992 74.6304 113.118 74.4543C113.261 74.243 113.484 74.1432 113.781 74.1432Z" fill="#C9CBD6"/>
<path d="M117.691 72.5054C117.572 72.5054 117.474 72.5406 117.394 72.6228C117.314 72.6991 117.274 72.7989 117.274 72.9222C117.274 73.0396 117.314 73.1453 117.394 73.2274C117.474 73.3038 117.572 73.3449 117.691 73.3449C117.806 73.3449 117.909 73.3038 117.988 73.2274C118.068 73.1453 118.114 73.0455 118.114 72.9222C118.114 72.7989 118.074 72.6991 117.994 72.6228C117.914 72.5406 117.811 72.5054 117.691 72.5054ZM117.389 73.7206V76.7555H117.994V73.7206H117.389Z" fill="#C9CBD6"/>
<path d="M120.676 75.916C120.55 75.916 120.453 75.9571 120.379 76.0393C120.293 76.1215 120.253 76.2272 120.253 76.3563C120.253 76.4737 120.293 76.5794 120.379 76.6674C120.453 76.7438 120.55 76.7848 120.676 76.7848C120.79 76.7848 120.893 76.7438 120.979 76.6674C121.059 76.5794 121.104 76.4737 121.104 76.3563C121.104 76.2272 121.059 76.1215 120.979 76.0393C120.893 75.9571 120.79 75.916 120.676 75.916Z" fill="#C9CBD6"/>
<path d="M124.54 73.6384C124.083 73.6384 123.729 73.7969 123.472 74.1139C123.232 74.4074 123.112 74.7831 123.112 75.241C123.112 75.7106 123.232 76.0863 123.478 76.3798C123.729 76.6851 124.077 76.8377 124.529 76.8377C124.906 76.8377 125.214 76.7379 125.443 76.5442C125.671 76.3446 125.825 76.0393 125.894 75.6343H125.294C125.237 76.0922 124.986 76.327 124.534 76.327C124.272 76.327 124.077 76.2272 123.946 76.0393C123.803 75.8456 123.735 75.5756 123.735 75.2351C123.735 74.8946 123.803 74.6246 123.952 74.4367C124.094 74.243 124.289 74.1491 124.54 74.1491C124.746 74.1491 124.911 74.196 125.037 74.2958C125.163 74.3898 125.243 74.5424 125.283 74.7479H125.882C125.825 74.3722 125.677 74.0904 125.448 73.9025C125.22 73.7264 124.917 73.6384 124.54 73.6384Z" fill="#C9CBD6"/>
<path d="M129.199 73.6384C128.753 73.6384 128.394 73.791 128.125 74.0963C127.857 74.3956 127.725 74.7772 127.725 75.241C127.725 75.6988 127.857 76.0804 128.119 76.3739C128.394 76.6792 128.753 76.8377 129.199 76.8377C129.645 76.8377 130.004 76.6792 130.279 76.3739C130.541 76.0804 130.673 75.6988 130.673 75.241C130.673 74.7772 130.536 74.3956 130.273 74.0963C130.004 73.791 129.645 73.6384 129.199 73.6384ZM129.199 74.1491C129.479 74.1491 129.696 74.2606 129.856 74.4896C129.993 74.6833 130.062 74.9357 130.062 75.241C130.062 75.5403 129.993 75.7869 129.856 75.9865C129.696 76.2096 129.479 76.327 129.199 76.327C128.919 76.327 128.702 76.2096 128.548 75.9865C128.411 75.7928 128.348 75.5462 128.348 75.241C128.348 74.9357 128.411 74.6833 128.548 74.4896C128.702 74.2606 128.919 74.1491 129.199 74.1491Z" fill="#C9CBD6"/>
<path d="M134.093 73.6384C133.795 73.6384 133.521 73.7734 133.281 74.0552V73.7206H132.676V76.7555H133.281V74.9298C133.281 74.7185 133.338 74.5365 133.464 74.3898C133.578 74.2371 133.738 74.1608 133.933 74.1608C134.332 74.1608 134.538 74.3956 134.538 74.877V76.7555H135.144V74.8887C135.144 74.6657 135.201 74.4837 135.315 74.3545C135.429 74.2254 135.566 74.1608 135.738 74.1608C135.966 74.1608 136.137 74.2137 136.24 74.3311C136.343 74.4426 136.395 74.6246 136.395 74.8711V76.7555H137V74.7655C137 74.425 136.897 74.155 136.703 73.9495C136.503 73.7382 136.252 73.6384 135.949 73.6384C135.749 73.6384 135.583 73.6736 135.446 73.7499C135.298 73.8262 135.155 73.9612 135.024 74.1491C134.841 73.8086 134.527 73.6384 134.093 73.6384Z" fill="#C9CBD6"/>
</svg>
