<svg xmlns="http://www.w3.org/2000/svg" width="250" height="140" viewBox="0 0 250 140">
    <rect x="0" y="0" width="250" height="140" fill="#f7f8fc" />
    <path transform="translate(68,54)" fill="#C9CBD6" d="M18.823 0C26.38.036 33.171 4.61 36.04 11.592c2.868 6.984 1.251 15.005-4.1 20.334l-5.085-4.76c1.087-1.044 1.965-2.287 2.584-3.661-7.03-1.855-14.42-1.864-21.453-.025.602 1.345 1.452 2.565 2.504 3.597l-5.134 4.698C.074 26.4-1.46 18.38 1.466 11.437 4.39 4.493 11.202-.016 18.742 0zM48.13 26.19l.07.22.158.482h.917l.16-.483.071-.218h.52l-.231.701h.192c.159.003.29.117.32.267l.006.066v1.987h-.683v.843h.683v.505h-.788c-.23 0-.416-.186-.416-.415v-.923h-.533l.16-.483h1.057v-1.354h-1.956v1.344h.684l-.598 1.816h-.517l.437-1.33h-.523v-2.323h.52l-.23-.701h.52zm47.899.764v.308h-1.337v.249h1.337v.308h-1.337v.252h.884c.23 0 .416.186.416.415v.976h-1.3v.252h1.337v.283h-1.337v.252h1.337v.308h-3.191v-.308h1.337v-.252h-1.337v-.283h1.337v-.252h-.884c-.23 0-.416-.186-.416-.416v-.963h1.3v-.252h-1.337v-.308h1.337v-.25h-1.337v-.32h3.19zm5.263-.8l-.111.2h3.163v.52h-3.44l-.616 1.154c-.012.02-.012.046 0 .067.012.021.034.034.058.034h1.642v-.643h.517v.64h1.848v.511h-1.848v.615h1.848v.517h-1.848v.785h-.517v-.766H99.66v-.517h2.328v-.616h-1.636c-.215 0-.412-.118-.514-.307-.102-.185-.102-.41 0-.594l.478-.88h-.666v-.517h.949l.11-.203h.583zm-46.156 3.954l-.142.437h-.603l.145-.437h.6zm3.046 0l.142.437h-.6l-.143-.437h.601zm5.328-3.917l-.14.421h.848c.201 0 .369.143.408.332l.008.084v3.514h-1.848c-.23 0-.416-.186-.416-.416v-3.514h.482l.067-.203.07-.218h.52zm15.626 3.868v.483H75.93c-.19 0-.345-.155-.345-.345v-.138h3.551zm-3.988-2.804c.138 0 .25.112.25.25v2.67c0 .097-.039.19-.107.257-.068.068-.16.107-.257.107h-.576v-.484h.422V27.74h-.422v-.484zm9.002-.03v.517l-.483.16v2.633h-.518v-2.464l-.354.117v-.517l1.355-.446zm26.532 1.083v.341h1.18c.316.009.569.266.572.582v1.04h-.517v-1.037c0-.018-.007-.035-.02-.048-.013-.013-.03-.02-.048-.02h-1.18v1.37h-.517v-1.373h-1.127c-.037 0-.068.03-.068.068v1.024h-.517V29.22c.001-.323.262-.583.585-.585h1.14v-.326h.517zm-23.172.037v.375h-.382v.36h.391v.375h-.39v.665c0 .23-.187.415-.417.415h-1.308v-.341h-.974v-.412h.98v.344h1.2v-.67h-2.18v-.376h2.18v-.36h-2.18v-.375h3.08zm5.066-2.191v4.381h-.508V27.69h-.2c-.038 0-.068.03-.068.068v2.237h-.477v-3.585h.477v.819h.268v-1.074h.508zm-46.115 1.068c.137 0 .25.111.25.249l.005 2.588h.456v.47h-.724c-.066 0-.13-.026-.176-.073-.047-.046-.073-.11-.073-.176v-2.588h-.382v-.47zm19.328-1.031l-.139.421h1.06c.112-.003.221.04.302.118.08.078.126.185.126.298v1.338h-.016v1.828c0 .066-.02.13-.055.184l-.042.05c-.062.063-.147.098-.235.098h-1.075v-.483h.89v-1.735l.015-.001v-1.212h-1.647l.295-.904h.52zm-1.672 2.615h-1.214v1.253h1.214v-1.253zm-7.5-2.612v.175h2.095v.443l-2.095.013v.252h1.35c.225-.002.412.177.418.403v1.979h.327v.446h-4.71v-.443h.33v-1.97l.009-.083c.039-.19.206-.332.407-.332H56.1v-.265h-2.094v-.443H56.1v-.175h.517zM78.394 27.4c.108 0 .199.079.216.185l.274 1.674.05.307h-.53l-.047-.307-.225-1.41h-.456v1.957h-.517v-2.403h.378l.001-.003zm.742-1.065v.484h-2.239l-.45 2.738h-.517l.45-2.738h-.607v-.484h3.363zm-21.271 1.173H54.85v.249h2.771v.308H54.85v.261h2.771v.308H54.85v.255h2.771v.308H54.85v.262h3.015v-1.951zm37.75 1.415h-.923v.216h.795l.129.006v-.222zm-1.453 0h-.924v.145c-.003.022.004.044.02.06.016.014.039.021.06.017h.844v-.222zm-27.883-.6v.483H65.11v-.483h1.168zm29.294.077h-.869v.215h.924v-.163c-.006-.027-.028-.048-.055-.052zm-1.41-.012h-.925v.227h.924v-.227zm15.244-1.265c0 .126.008.251.024.376h2.033c.016-.125.024-.25.025-.376h.53c-.001.126-.008.25-.022.376h.178c.322.005.58.266.58.587v.388h-.518v-.388c0-.037-.03-.067-.068-.067h-3.52c-.018 0-.035.007-.048.02-.012.012-.02.03-.02.047v.388h-.517v-.388c0-.324.263-.587.588-.587h.253c-.014-.125-.021-.25-.022-.376zm-45.29-.03h-1.214v1.23h1.214v-1.23zm22.91-.865c.23 0 .415.186.415.415v1.382h-2.537c-.23 0-.416-.186-.416-.416v-1.381zm-.034.363h-2.051v.35h1.801v.367h-1.801v.35h2.05v-1.067zm-2.843-.394v.52l-1.355.446v-.517l1.355-.449zm26.532-.046v.206h2.088v.517h-4.697v-.517h2.088v-.206h.52zm-35.29.184v.484h-.94v-.484h.94zm-28.685-.033v.483h-.893v-.483h.893zm47.123-.151v.218h1.213v-.218h.517v.218h.469v.351h-3.191v-.35h.468v-.22h.524zm9.62-12.326v1.363h5.544c1.34.023 2.416 1.113 2.42 2.452v3.862h-2.155v-3.859c0-.158-.128-.286-.286-.286h-5.544v5.258h-2.156v-5.261h-5.328c-.158 0-.286.128-.286.286v3.862h-2.156v-3.853c0-1.36 1.103-2.461 2.464-2.461h5.328v-1.363h2.156zM66.643 7.692v1.382h-6.203v.923h6.2v1.37h-6.203v.922h4.312c.963 0 1.743.78 1.743 1.742v4.05h-6.052v.922h6.203v1.305h-6.203v.941h6.203v1.366H52.069V21.25h6.202v-.941H52.07V18.99h6.202v-.923H53.96c-.963 0-1.743-.78-1.743-1.742V12.28h6.054v-.923H52.07V9.991h6.202v-.923H52.07V7.692h14.573zm9.162-3.44l-.465.865h14.428v2.154h-15.62l-2.636 4.83c-.05.089-.048.196.003.283.052.087.145.14.246.14h7.512V9.845h2.156v2.693h8.352v2.153h-8.352v2.539h8.336v2.175h-8.352v3.21h-2.156v-3.231H68.902V17.23h10.339v-2.542h-7.447c-.893.003-1.718-.477-2.155-1.255-.417-.778-.406-1.716.03-2.483l2.005-3.692h-2.772V5.105h3.976l.462-.853h2.464zm-24.813 0v18.363h-2.128V11.902h-.841c-.156 0-.283.126-.283.283v8.157h-2.125V5.326h2.125v4.637h1.111l.013-5.71h2.128zm7.28 11.579h-4.524v.637c-.004.076.026.15.08.203.054.054.127.084.204.083h4.24v-.923zm6.693-.003h-4.525v.923h4.525v-.923zM18.789 6.957h-.055c-5.572 0-10.382 3.902-11.524 9.35 3.771-.9 7.637-1.35 11.515-1.34 3.877 0 7.74.461 11.509 1.372-1.124-5.432-5.893-9.342-11.445-9.382zm78.736 1.6c.001.528.036 1.055.105 1.578h9.723c.068-.523.103-1.05.104-1.578h2.196c-.001.527-.03 1.054-.09 1.578h.75c1.34.024 2.417 1.115 2.42 2.456v2.108h-2.156V12.59c0-.158-.128-.286-.286-.286H94.344c-.158 0-.286.128-.286.286v2.114h-2.156v-2.108c0-1.36 1.103-2.462 2.464-2.462h1.053c-.058-.524-.088-1.05-.09-1.578zm-39.254 5.05h-4.527v.922h4.527v-.923zm6.406-.025H60.44v.923h4.525v-.616c.004-.076-.022-.156-.076-.215-.054-.06-.13-.093-.21-.092zm38.77-9.33v.853h9.354V7.27H91.926V5.105h9.353v-.853h2.169zm-47.26-.012c0 .308.012.615.033.923h6.298c.034-.308.034-.615.034-.923h2.156c0 .308-.012.615-.03.923h1.964v1.465H52.069V5.163h1.958c-.03-.308-.03-.615-.03-.923z"/>
</svg>
