<svg width="400" height="400" viewBox="0 0 400 400" fill="none" xmlns="http://www.w3.org/2000/svg">
<circle cx="254.141" cy="202.906" r="127" fill="#C61B38"/>
<path d="M48.1952 212.228C42.9772 212.228 38.4617 211.626 34.6485 210.422C30.8354 209.117 28.0759 206.559 26.37 202.745C24.7645 198.932 24.5136 193.213 25.6174 185.586L31.9392 140.28C32.6416 135.163 34.2973 131.149 36.9063 128.239C39.6156 125.329 43.0274 123.272 47.1416 122.067C51.3561 120.763 56.0222 120.111 61.1398 120.111C66.4581 120.111 70.9235 120.763 74.5359 122.067C78.1484 123.272 80.7574 125.329 82.3629 128.239C84.0688 131.149 84.5705 135.163 83.8681 140.28L81.1588 159.998H60.2367L63.0965 139.377C63.3976 137.571 63.3976 136.216 63.0965 135.313C62.7955 134.41 62.2938 133.808 61.5913 133.507C60.9893 133.106 60.2367 132.905 59.3336 132.905C58.4305 132.905 57.5775 133.106 56.7748 133.507C56.0723 133.808 55.4703 134.41 54.9685 135.313C54.4668 136.216 54.0654 137.571 53.7644 139.377L46.2385 193.564C46.0378 195.27 46.0378 196.624 46.2385 197.628C46.5395 198.631 46.991 199.284 47.5931 199.585C48.1952 199.886 48.998 200.036 50.0014 200.036C50.9045 200.036 51.7073 199.886 52.4097 199.585C53.1121 199.284 53.7644 198.631 54.3665 197.628C54.9685 196.624 55.3197 195.27 55.4201 193.564L58.2799 174.448H79.0515L77.3958 185.436C76.3923 193.162 74.5861 198.932 71.9771 202.745C69.3681 206.559 66.0567 209.117 62.0429 210.422C58.1294 211.626 53.5135 212.228 48.1952 212.228ZM71.896 210.422L96.4305 135.915H126.384L129.394 210.422H106.365V199.735H97.6347L94.1727 210.422H71.896ZM98.8388 189.801H107.418L108.773 151.569L98.8388 189.801ZM131.725 210.422L142.412 135.915H176.128C182.249 135.915 186.564 137.119 189.072 139.528C191.681 141.936 192.735 144.946 192.233 148.559L190.577 159.998C190.076 163.51 188.52 166.772 185.911 169.782C183.302 172.792 179.339 174.548 174.02 175.05V175.502C177.432 176.104 179.69 177.057 180.794 178.361C181.998 179.566 182.851 181.673 183.353 184.683L187.567 210.422H164.839L162.882 186.038C162.782 185.034 162.631 184.131 162.431 183.329C162.23 182.526 161.929 181.924 161.527 181.522C161.226 181.021 160.725 180.77 160.022 180.77H157.614L153.098 210.422H131.725ZM159.119 166.47H163.635C165.341 166.47 166.796 166.069 168 165.266C169.304 164.464 170.157 162.858 170.559 160.45L171.763 152.322C172.064 150.014 171.813 148.509 171.01 147.806C170.308 147.003 169.254 146.602 167.849 146.602H162.431L159.119 166.47Z" fill="black"/>
<path d="M119.289 299.9C114.071 299.9 109.555 299.298 105.742 298.094C101.929 296.789 99.1692 294.23 97.4633 290.417C95.8578 286.604 95.6069 280.884 96.7107 273.258L103.033 227.952C103.735 222.834 105.391 218.821 108 215.911C110.709 213.001 114.121 210.944 118.235 209.739C122.449 208.435 127.115 207.783 132.233 207.783C137.551 207.783 142.017 208.435 145.629 209.739C149.242 210.944 151.851 213.001 153.456 215.911C155.162 218.821 155.664 222.834 154.961 227.952L152.252 247.67H131.33L134.19 227.049C134.491 225.243 134.491 223.888 134.19 222.985C133.889 222.082 133.387 221.48 132.685 221.179C132.083 220.777 131.33 220.577 130.427 220.577C129.524 220.577 128.671 220.777 127.868 221.179C127.166 221.48 126.564 222.082 126.062 222.985C125.56 223.888 125.159 225.243 124.858 227.049L117.332 281.236C117.131 282.942 117.131 284.296 117.332 285.3C117.633 286.303 118.084 286.955 118.686 287.256C119.289 287.557 120.091 287.708 121.095 287.708C121.998 287.708 122.801 287.557 123.503 287.256C124.205 286.955 124.858 286.303 125.46 285.3C126.062 284.296 126.413 282.942 126.513 281.236L129.373 262.12H150.145L148.489 273.108C147.486 280.834 145.679 286.604 143.07 290.417C140.461 294.23 137.15 296.789 133.136 298.094C129.223 299.298 124.607 299.9 119.289 299.9ZM142.989 298.094L167.524 223.587H197.477L200.487 298.094H177.458V287.407H168.728L165.266 298.094H142.989ZM169.932 277.473H178.512L179.866 239.241L169.932 277.473ZM204.775 298.094L213.505 237.736H200.56L202.367 223.587H248.877L247.071 237.736H233.975L225.245 298.094H204.775ZM265.624 299.599C260.005 299.599 255.339 298.947 251.626 297.642C248.014 296.338 245.455 293.98 243.95 290.568C242.444 287.156 242.143 282.339 243.047 276.118L248.315 239.392C249.117 233.471 251.977 229.156 256.894 226.447C261.811 223.738 268.334 222.383 276.462 222.383C281.88 222.383 286.346 222.985 289.858 224.189C293.37 225.293 295.929 227.099 297.534 229.608C299.14 232.116 299.692 235.378 299.19 239.392L296.932 257.002H276.462L278.87 238.488C278.97 237.485 278.87 236.732 278.569 236.231C278.268 235.729 277.766 235.378 277.064 235.177C276.462 234.976 275.759 234.876 274.956 234.876C274.053 234.876 273.2 235.026 272.398 235.328C271.695 235.528 271.143 235.879 270.742 236.381C270.341 236.883 270.039 237.585 269.839 238.488L263.216 284.246C263.116 285.149 263.166 285.902 263.367 286.504C263.668 287.006 264.119 287.357 264.721 287.557C265.424 287.658 266.176 287.708 266.979 287.708C267.882 287.708 268.685 287.658 269.387 287.557C270.19 287.357 270.842 287.006 271.344 286.504C271.846 285.902 272.147 285.149 272.247 284.246L274.655 266.635H295.126L293.771 275.968C292.868 281.888 291.363 286.604 289.256 290.116C287.148 293.628 284.188 296.087 280.375 297.492C276.662 298.897 271.745 299.599 265.624 299.599ZM293.27 298.094L303.957 223.587H324.277L320.063 252.336H329.696L333.91 223.587H354.381L343.694 298.094H323.374L327.89 267.388H318.407L313.741 298.094H293.27Z" fill="black"/>
</svg>
